# xmcd
#
# Track frame offsets: 
#        150
#        13596
#        25644
#        41698
#        56677
#        68753
#        89295
#        103348
#        118112
#        133922
#        152591
#        167284
#        185565
#        199954
#        220446
#        241842
#        264221
#        283912
#
# Disc length: 3972 seconds
#
# Revision: 4
# Processed by: cddbd v1.5.2PL0 Copyright (c) Steve Scherf et al.
# Submitted via: ExactAudioCopy v0.95b3
#
DISCID=020f8212
DTITLE=Seweryn Krajewski - The best-uciekaj moje serce
DYEAR=1900
DGENRE=Easy Listening
TTITLE0=Baw mnie
TTITLE1=Nie mowmy o zmartwieniach
TTITLE2=Uciekaj moje serce
TTITLE3=Proste wzruszenia
TTITLE4=Co kazdy chlopiec wiedziec powinien
TTITLE5=List do jedzacej Eurydyki
TTITLE6=Jak odnalezc niezgubiona
TTITLE7=Kiedy mnie juz nie bedzie
TTITLE8=Noc jest muza dla muzyka
TTITLE9=Sere wroc
TTITLE10=Najpiekniejsza
TTITLE11=Lekki zawrot glowy
TTITLE12=Przemija uroda w nas
TTITLE13=Wakacje w Amsterdamie
TTITLE14=Przestal padac deszcz
TTITLE15=Ziemio blekitno-szara
TTITLE16=Pijmy wino za kolegow
TTITLE17=Juz razem
EXTD=
EXTT0=
EXTT1=
EXTT2=
EXTT3=
EXTT4=
EXTT5=
EXTT6=
EXTT7=
EXTT8=
EXTT9=
EXTT10=
EXTT11=
EXTT12=
EXTT13=
EXTT14=
EXTT15=
EXTT16=
EXTT17=
PLAYORDER=
